<?xml version="1.0" encoding="UTF-8" standalone="no"?>
<svg
   enable-background="new 0 0 100 100"
   viewBox="0 0 18.710098 142.28516"
   version="1.1"
   id="svg1"
   sodipodi:docname="wing.svg"
   inkscape:version="1.3 (0e150ed6c4, 2023-07-21)"
   width="18.710098"
   height="142.28516"
   xmlns:inkscape="http://www.inkscape.org/namespaces/inkscape"
   xmlns:sodipodi="http://sodipodi.sourceforge.net/DTD/sodipodi-0.dtd"
   xmlns="http://www.w3.org/2000/svg"
   xmlns:svg="http://www.w3.org/2000/svg">
  <defs
     id="defs1" />
  <sodipodi:namedview
     id="namedview1"
     pagecolor="#ffffff"
     bordercolor="#000000"
     borderopacity="0.25"
     inkscape:showpageshadow="2"
     inkscape:pageopacity="0.0"
     inkscape:pagecheckerboard="0"
     inkscape:deskcolor="#d1d1d1"
     inkscape:zoom="3.8162803"
     inkscape:cx="36.291883"
     inkscape:cy="155.51793"
     inkscape:window-width="2560"
     inkscape:window-height="1369"
     inkscape:window-x="-8"
     inkscape:window-y="-8"
     inkscape:window-maximized="1"
     inkscape:current-layer="svg1" />
  <path
     d="M 17.163306,62.289275 9.8608165,1.4228515 C 9.744904,0.47428379 9.5710357,0 9.3681885,0 9.1653418,0 8.9914726,0.47428379 8.8755601,1.4228515 L 1.5730708,62.289275 c -1.91255664,15.809461 -2.08642542,35.413192 -0.492628,52.329315 1.564819,16.44184 4.4626325,26.71799 7.8240956,27.66656 0.1448905,0 0.3187597,0 0.4636501,0 0.1448909,0 0.3187597,0 0.4636501,0 3.3324854,-0.79047 6.2592764,-11.06662 7.7951174,-27.50846 1.593797,-17.074223 1.419929,-36.677954 -0.46365,-52.487415 z m -0.550584,49.483615 c -1.361973,14.38661 -3.912048,23.398 -6.8098617,24.18848 -0.2897809,0 -0.5795622,0 -0.8403656,0 C 6.0357033,135.17089 3.4856279,126.1595 2.1236555,111.77289 0.73270522,96.911992 0.87759565,79.679686 2.5583277,65.767355 L 9.3681885,8.8532979 16.17805,65.767355 c 1.680731,13.912331 1.825622,31.144637 0.434672,46.005535 z"
     id="path1"
     style="stroke-width:0.676851" />
</svg>
